<svg xmlns="http://www.w3.org/2000/svg" xmlns:xlink="http://www.w3.org/1999/xlink" width="220" height="220" viewBox="0 0 220 220">
  <defs>
    <clipPath id="clip-path">
      <rect id="Rectangle_6260" data-name="Rectangle 6260" width="220" height="220" transform="translate(167 2047)" fill="#fff" stroke="#707070" stroke-width="1"/>
    </clipPath>
  </defs>
  <g id="Mask_Group_57" data-name="Mask Group 57" transform="translate(-167 -2047)" clip-path="url(#clip-path)">
    <g id="_026-goal" data-name="026-goal" transform="translate(144.379 2024.381)">
      <g id="Group_9051" data-name="Group 9051">
        <path id="Path_17138" data-name="Path 17138" d="M131.829,184.262A18.589,18.589,0,0,1,114.081,171.2a18.582,18.582,0,1,0,35.5,0,18.591,18.591,0,0,1-17.748,13.062Z" fill="#f4f5f6"/>
        <path id="Path_17139" data-name="Path 17139" d="M88.676,141.075a18.59,18.59,0,0,1-17.748-13.061,18.582,18.582,0,1,0,35.5,0A18.59,18.59,0,0,1,88.676,141.075Z" fill="#f4f5f6"/>
        <path id="Path_17140" data-name="Path 17140" d="M43.794,185.585a18.59,18.59,0,0,1-17.748-13.061,18.582,18.582,0,1,0,35.5,0,18.59,18.59,0,0,1-17.748,13.061Z" fill="#f4f5f6"/>
        <circle id="Ellipse_109" data-name="Ellipse 109" cx="15.409" cy="15.409" r="15.409" transform="translate(182.5 95.324)" fill="#f4f5f6"/>
      </g>
      <path id="Path_17141" data-name="Path 17141" d="M236.531,140.234l-15.541-15.541,9.321-6.253a1.824,1.824,0,0,0-.592-3.289l-31.727-7.6a1.824,1.824,0,0,0-2.2,2.2l7.6,31.727a1.824,1.824,0,0,0,3.289.592l6.253-9.321,15.541,15.541a1.824,1.824,0,0,0,2.579,0l5.481-5.481A1.822,1.822,0,0,0,236.531,140.234Z" fill="#2e9a84"/>
      <path id="Path_17142" data-name="Path 17142" d="M197.909,66.023a44.678,44.678,0,0,0-33.373,74.42L144.889,160.09a21.044,21.044,0,0,0-26.042-.058l-13.5-13.5a21.176,21.176,0,1,0-33.5-.208L56.8,161.374a21.235,21.235,0,1,0,3.664,3.663l14.992-14.992a21.06,21.06,0,0,0,26.233.155l13.489,13.489a21.175,21.175,0,1,0,33.361.078l19.66-19.66a44.667,44.667,0,0,0,52.2,5.277,2.59,2.59,0,1,0-2.609-4.475,39.51,39.51,0,0,1-47.762-6.181c-.019-.02-.031-.042-.051-.062s-.042-.032-.062-.051a39.509,39.509,0,1,1,62.609-8.777,2.59,2.59,0,1,0,4.533,2.506,44.721,44.721,0,0,0-39.15-66.32ZM43.795,194.037a15.992,15.992,0,1,1,10.831-27.724,2.349,2.349,0,0,0,.9.9,15.966,15.966,0,0,1-11.732,26.823Zm28.889-60.5a15.993,15.993,0,1,1,15.993,15.992A16.011,16.011,0,0,1,72.684,133.534Zm59.144,59.18a15.992,15.992,0,1,1,15.993-15.992A16.01,16.01,0,0,1,131.828,192.713Z" fill="#121b3e"/>
      <path id="Path_17143" data-name="Path 17143" d="M197.909,83.022a27.712,27.712,0,0,0-2.38,55.321c.075.006.149.009.223.009a2.59,2.59,0,0,0,.217-5.171,22.531,22.531,0,1,1,24.288-25.324,2.591,2.591,0,0,0,5.14-.653,27.752,27.752,0,0,0-27.488-24.182Z" fill="#121b3e"/>
    </g>
  </g>
</svg>
