<svg xmlns="http://www.w3.org/2000/svg" xmlns:xlink="http://www.w3.org/1999/xlink" width="220" height="220" viewBox="0 0 220 220">
  <defs>
    <clipPath id="clip-path">
      <rect id="Rectangle_6259" data-name="Rectangle 6259" width="220" height="220" transform="translate(542 2047)" fill="#2e9a84" stroke="#707070" stroke-width="1"/>
    </clipPath>
  </defs>
  <g id="Mask_Group_55" data-name="Mask Group 55" transform="translate(-542 -2047)" clip-path="url(#clip-path)">
    <g id="_004-analytics" data-name="004-analytics" transform="translate(525.722 2030.723)">
      <path id="Path_17118" data-name="Path 17118" d="M47.683,156.214H204.871v8.867H47.683Z" fill="#f4f5f6"/>
      <g id="Group_9049" data-name="Group 9049">
        <path id="Path_17119" data-name="Path 17119" d="M34.529,171A2.466,2.466,0,0,0,37,168.534V63.961a2.47,2.47,0,0,1,2.466-2.466H213.093a2.47,2.47,0,0,1,2.466,2.466V168.534a2.466,2.466,0,1,0,4.933,0V63.961a7.407,7.407,0,0,0-7.4-7.4H39.462a7.407,7.407,0,0,0-7.4,7.4V168.534A2.466,2.466,0,0,0,34.529,171Z" fill="#121b3e"/>
        <path id="Path_17120" data-name="Path 17120" d="M47.683,68.893a2.466,2.466,0,0,0-2.466,2.466v93.722a2.466,2.466,0,0,0,2.466,2.466H204.871a2.466,2.466,0,0,0,2.466-2.466V71.36a2.466,2.466,0,0,0-2.466-2.466Zm154.723,93.722H50.149V73.826H202.4v88.789Z" fill="#121b3e"/>
        <path id="Path_17121" data-name="Path 17121" d="M225.754,174.947H26.8a10.523,10.523,0,1,0,0,21.047H225.755a10.523,10.523,0,1,0,0-21.047Zm0,16.114H26.8a5.591,5.591,0,1,1,0-11.181H225.755a5.591,5.591,0,1,1,0,11.181Z" fill="#121b3e"/>
      </g>
      <path id="Path_17122" data-name="Path 17122" d="M163.189,86.292a11.347,11.347,0,0,0-9.579,17.46L137.657,119.7a11.283,11.283,0,0,0-12.2-.025l-5.009-5.009a11.368,11.368,0,1,0-19.229-.109l-5.758,5.758a11.4,11.4,0,1,0,3.487,3.487l5.715-5.715a11.29,11.29,0,0,0,12.3.066l5,5a11.368,11.368,0,1,0,19.17.039L157.1,107.239a11.361,11.361,0,1,0,6.091-20.947ZM89.366,136.337a6.434,6.434,0,1,1,4.261-11.243,2.528,2.528,0,0,0,.247.3,2.461,2.461,0,0,0,.3.247,6.424,6.424,0,0,1-4.809,10.7Zm15.065-27.755a6.434,6.434,0,1,1,6.434,6.434A6.441,6.441,0,0,1,104.43,108.582ZM131.537,135.7a6.434,6.434,0,1,1,6.434-6.434A6.442,6.442,0,0,1,131.537,135.7Zm31.652-31.61a6.434,6.434,0,1,1,6.434-6.434A6.441,6.441,0,0,1,163.189,104.094Z" fill="#2e9a84"/>
    </g>
  </g>
</svg>
