<svg xmlns="http://www.w3.org/2000/svg" xmlns:xlink="http://www.w3.org/1999/xlink" width="220" height="220" viewBox="0 0 220 220">
  <defs>
    <clipPath id="clip-path">
      <rect id="Rectangle_6258" data-name="Rectangle 6258" width="220" height="220" transform="translate(917 2047)" fill="#fff" stroke="#707070" stroke-width="1"/>
    </clipPath>
  </defs>
  <g id="Mask_Group_56" data-name="Mask Group 56" transform="translate(-917 -2047)" clip-path="url(#clip-path)">
    <g id="_061-ux_design" data-name="061-ux design" transform="translate(864.899 2008.529)">
      <path id="Path_17123" data-name="Path 17123" d="M165.781,214.655v-9.312H100.214v22.135h96.516V214.655Z" fill="#f4f5f6"/>
      <path id="Path_17124" data-name="Path 17124" d="M158.649,57.97H138.294a2.9,2.9,0,0,1,0-5.8h20.355a2.9,2.9,0,0,1,0,5.8Z" fill="#f4f5f6"/>
      <g id="Group_9050" data-name="Group 9050">
        <path id="Path_17125" data-name="Path 17125" d="M210.739,221.934a2.9,2.9,0,0,0-2.9,2.9v27.838H89.1V202.7a2.9,2.9,0,0,0-5.8,0v52.873a2.9,2.9,0,0,0,2.9,2.9H210.739a2.9,2.9,0,0,0,2.9-2.9V224.833a2.9,2.9,0,0,0-2.9-2.9Z" fill="#121b3e"/>
        <path id="Path_17126" data-name="Path 17126" d="M86.2,137.742a2.9,2.9,0,0,0,2.9-2.9V44.271H207.839V170.9a2.9,2.9,0,0,0,5.8,0V41.371a2.9,2.9,0,0,0-2.9-2.9H86.2a2.9,2.9,0,0,0-2.9,2.9v93.471a2.9,2.9,0,0,0,2.9,2.9Z" fill="#121b3e"/>
        <path id="Path_17127" data-name="Path 17127" d="M199.629,227.478v-2.645a2.9,2.9,0,0,0-5.788-.255H103.113V202.7a2.9,2.9,0,0,0-5.8,0v24.78a2.9,2.9,0,0,0,2.9,2.9h96.515A2.9,2.9,0,0,0,199.629,227.478Z" fill="#121b3e"/>
        <path id="Path_17128" data-name="Path 17128" d="M196.729,173.8a2.9,2.9,0,0,0,2.9-2.9V69.465a2.9,2.9,0,0,0-2.9-2.9H100.214a2.9,2.9,0,0,0-2.9,2.9v65.377a2.9,2.9,0,0,0,5.8,0V72.365h90.715V170.9a2.9,2.9,0,0,0,2.9,2.9Z" fill="#121b3e"/>
        <path id="Path_17129" data-name="Path 17129" d="M135.81,238.559a2.9,2.9,0,1,0,0,5.8h25.323a2.9,2.9,0,0,0,0-5.8Z" fill="#121b3e"/>
        <path id="Path_17130" data-name="Path 17130" d="M236.267,177.874H165.781a2.9,2.9,0,0,0-2.9,2.9v33.882a2.9,2.9,0,0,0,2.9,2.9h70.486a2.9,2.9,0,0,0,2.9-2.9V180.773a2.9,2.9,0,0,0-2.9-2.9Zm-2.9,33.882H168.681V183.673h64.686Z" fill="#121b3e"/>
      </g>
      <path id="Path_17131" data-name="Path 17131" d="M258.153,227.972l-14.891-14.891,8.93-5.991a1.747,1.747,0,0,0-.566-3.15l-30.4-7.277a1.748,1.748,0,0,0-2.106,2.106l7.277,30.4a1.747,1.747,0,0,0,3.15.566l5.991-8.93,14.891,14.891a1.747,1.747,0,0,0,2.471,0l5.251-5.251A1.747,1.747,0,0,0,258.153,227.972Z" fill="#2e9a84"/>
      <path id="Path_17132" data-name="Path 17132" d="M179.406,118.288h-61.87a2.319,2.319,0,0,1-2.32-2.32V90.606a2.319,2.319,0,0,1,2.32-2.32h61.87a2.319,2.319,0,0,1,2.32,2.32v25.362A2.32,2.32,0,0,1,179.406,118.288Z" fill="#f4f5f6"/>
      <path id="Path_17133" data-name="Path 17133" d="M68.436,151.371h36.538a2.9,2.9,0,0,0,0-5.8H68.436a2.9,2.9,0,0,0,0,5.8Z" fill="#2e9a84"/>
      <path id="Path_17134" data-name="Path 17134" d="M68.436,165.581h42.338a2.9,2.9,0,1,0,0-5.8H68.436a2.9,2.9,0,1,0,0,5.8Z" fill="#2e9a84"/>
      <path id="Path_17135" data-name="Path 17135" d="M110.774,173.99H68.436a2.9,2.9,0,1,0,0,5.8h42.338a2.9,2.9,0,1,0,0-5.8Z" fill="#2e9a84"/>
      <path id="Path_17136" data-name="Path 17136" d="M110.774,188.2H68.436a2.9,2.9,0,0,0,0,5.8h42.338a2.9,2.9,0,0,0,0-5.8Z" fill="#2e9a84"/>
      <path id="Path_17137" data-name="Path 17137" d="M174.542,107H138.294a2.9,2.9,0,0,0-2.9,2.9v36.248a2.9,2.9,0,0,0,2.9,2.9h36.248a2.9,2.9,0,0,0,2.9-2.9V109.9A2.9,2.9,0,0,0,174.542,107Zm-33.348,9.9,11.124,11.124-11.124,11.124Zm4.1-4.1h22.248l-11.124,11.124Zm11.124,19.325,11.124,11.124H145.294Zm4.1-4.1,11.124-11.123v22.246Z" fill="#2e9a84"/>
    </g>
  </g>
</svg>
