<svg xmlns="http://www.w3.org/2000/svg" xmlns:xlink="http://www.w3.org/1999/xlink" width="220" height="220" viewBox="0 0 220 220">
  <defs>
    <clipPath id="clip-path">
      <rect id="Rectangle_6257" data-name="Rectangle 6257" width="220" height="220" transform="translate(1292 2047)" fill="#fff" stroke="#707070" stroke-width="1"/>
    </clipPath>
  </defs>
  <g id="Mask_Group_58" data-name="Mask Group 58" transform="translate(-1292 -2047)" clip-path="url(#clip-path)">
    <g id="_021-customer_satisfaction" data-name="021-customer satisfaction" transform="translate(1256.675 2011.676)">
      <path id="Path_17144" data-name="Path 17144" d="M145.325,116.873l-16.591-16.592H46.265v11.353h82.468l16.591,16.592,16.592-16.592h82.467V100.281H161.917Z" fill="#f4f5f6"/>
      <path id="Path_17145" data-name="Path 17145" d="M101.6,223.438h87.456v29.048H101.6Z" fill="#f4f5f6"/>
      <path id="Path_17146" data-name="Path 17146" d="M165.09,182.989a27.58,27.58,0,1,0-39.531,0,29.057,29.057,0,0,0-26.8,28.933v40.564a2.838,2.838,0,0,0,2.838,2.838h87.456a2.838,2.838,0,0,0,2.838-2.838V211.922a29.057,29.057,0,0,0-26.8-28.933Zm21.124,66.66H104.435V211.923a23.367,23.367,0,0,1,23.342-23.34h6.234a2.838,2.838,0,0,0,1.3-5.361,21.9,21.9,0,1,1,20.03,0,2.838,2.838,0,0,0,1.3,5.361h6.234a23.368,23.368,0,0,1,23.342,23.34v37.725Z" fill="#121b3e"/>
      <path id="Path_17147" data-name="Path 17147" d="M244.384,35.324H46.265a2.838,2.838,0,0,0-2.838,2.838v73.472a2.838,2.838,0,0,0,2.838,2.838h81.292l15.76,15.76a2.84,2.84,0,0,0,4.015,0l15.761-15.76h81.292a2.838,2.838,0,0,0,2.838-2.838V38.162a2.84,2.84,0,0,0-2.84-2.838ZM241.546,108.8H161.917a2.838,2.838,0,0,0-2.007.831l-14.585,14.585L130.74,109.627a2.836,2.836,0,0,0-2.007-.831H49.1V41H241.546Z" fill="#121b3e"/>
      <g id="Group_9052" data-name="Group 9052">
        <path id="Path_17148" data-name="Path 17148" d="M95.882,55.475l3.211,9.881a2.271,2.271,0,0,0,2.159,1.569h10.39a2.271,2.271,0,0,1,1.335,4.108l-8.4,6.107a2.272,2.272,0,0,0-.825,2.539l3.211,9.881a2.271,2.271,0,0,1-3.495,2.539l-8.4-6.107a2.271,2.271,0,0,0-2.669,0l-8.4,6.107a2.271,2.271,0,0,1-3.495-2.539L83.7,79.679a2.27,2.27,0,0,0-.825-2.539l-8.4-6.107a2.271,2.271,0,0,1,1.335-4.108h10.39a2.271,2.271,0,0,0,2.159-1.569l3.211-9.881a2.27,2.27,0,0,1,4.318,0Z" fill="#2e9a84"/>
        <path id="Path_17149" data-name="Path 17149" d="M147.484,55.475l3.211,9.881a2.271,2.271,0,0,0,2.159,1.569h10.39a2.271,2.271,0,0,1,1.335,4.108l-8.4,6.107a2.272,2.272,0,0,0-.825,2.539l3.211,9.881a2.271,2.271,0,0,1-3.495,2.539l-8.4-6.107a2.271,2.271,0,0,0-2.669,0l-8.4,6.107a2.271,2.271,0,0,1-3.495-2.539l3.211-9.881a2.27,2.27,0,0,0-.825-2.539l-8.4-6.107a2.271,2.271,0,0,1,1.335-4.108H137.8a2.271,2.271,0,0,0,2.159-1.569l3.211-9.881A2.27,2.27,0,0,1,147.484,55.475Z" fill="#2e9a84"/>
        <path id="Path_17150" data-name="Path 17150" d="M199.086,55.475l3.211,9.881a2.271,2.271,0,0,0,2.159,1.569h10.39a2.271,2.271,0,0,1,1.335,4.108l-8.4,6.107a2.272,2.272,0,0,0-.825,2.539l3.211,9.881a2.271,2.271,0,0,1-3.495,2.539l-8.4-6.107a2.271,2.271,0,0,0-2.669,0l-8.4,6.107a2.271,2.271,0,0,1-3.495-2.539l3.211-9.881a2.27,2.27,0,0,0-.825-2.539l-8.4-6.107a2.271,2.271,0,0,1,1.335-4.108H189.4a2.271,2.271,0,0,0,2.159-1.569l3.211-9.881a2.27,2.27,0,0,1,4.318,0Z" fill="#2e9a84"/>
      </g>
    </g>
  </g>
</svg>
