<svg xmlns="http://www.w3.org/2000/svg" xmlns:xlink="http://www.w3.org/1999/xlink" width="220" height="220" viewBox="0 0 220 220">
  <defs>
    <clipPath id="clip-path">
      <rect id="Rectangle_6256" data-name="Rectangle 6256" width="220" height="220" transform="translate(730 4949)" fill="#fff" stroke="#707070" stroke-width="1"/>
    </clipPath>
  </defs>
  <g id="Mask_Group_53" data-name="Mask Group 53" transform="translate(-730 -4949)" clip-path="url(#clip-path)">
    <g id="_065-web_development" data-name="065-web development" transform="translate(713.722 4932.723)">
      <path id="Path_17093" data-name="Path 17093" d="M47.683,156.214H204.871v8.867H47.683Z" fill="#f4f5f6"/>
      <g id="Group_9047" data-name="Group 9047">
        <path id="Path_17094" data-name="Path 17094" d="M34.529,171A2.466,2.466,0,0,0,37,168.534V63.961a2.47,2.47,0,0,1,2.466-2.466H213.093a2.469,2.469,0,0,1,2.466,2.466V168.534a2.466,2.466,0,1,0,4.933,0V63.961a7.407,7.407,0,0,0-7.4-7.4H39.462a7.407,7.407,0,0,0-7.4,7.4V168.534A2.466,2.466,0,0,0,34.529,171Z" fill="#121b3e"/>
        <path id="Path_17095" data-name="Path 17095" d="M47.683,68.893a2.466,2.466,0,0,0-2.466,2.466v93.722a2.466,2.466,0,0,0,2.466,2.466H204.871a2.466,2.466,0,0,0,2.466-2.466V71.36a2.466,2.466,0,0,0-2.466-2.466Zm154.723,93.722H50.149V73.826H202.4v88.789Z" fill="#121b3e"/>
        <path id="Path_17096" data-name="Path 17096" d="M225.754,174.947H26.8a10.523,10.523,0,1,0,0,21.047H225.755a10.523,10.523,0,1,0,0-21.047Zm0,16.114H26.8a5.591,5.591,0,1,1,0-11.181H225.755a5.591,5.591,0,1,1,0,11.181Z" fill="#121b3e"/>
      </g>
      <path id="Path_17097" data-name="Path 17097" d="M180.7,83.691H71.853a2.466,2.466,0,0,0-2.466,2.466v70.056a2.466,2.466,0,0,0,4.933,0V88.624H178.235v67.59a2.466,2.466,0,0,0,4.933,0V86.158a2.465,2.465,0,0,0-2.465-2.466Z" fill="#2e9a84"/>
      <path id="Path_17098" data-name="Path 17098" d="M150.768,115.679l-4.087-1.058,2.142-3.638a4.846,4.846,0,0,0-.75-5.888l-3.819-3.821a4.848,4.848,0,0,0-5.888-.749l-3.638,2.142-1.059-4.086a4.847,4.847,0,0,0-4.693-3.634h-5.4a4.849,4.849,0,0,0-4.694,3.633l-1.058,4.087-3.638-2.142a4.848,4.848,0,0,0-5.888.75l-3.818,3.819a4.848,4.848,0,0,0-.751,5.888l2.142,3.638-4.086,1.058a4.847,4.847,0,0,0-3.634,4.693v5.4a4.846,4.846,0,0,0,3.633,4.693l4.087,1.058-2.142,3.638a4.845,4.845,0,0,0,.75,5.887l3.818,3.819a4.847,4.847,0,0,0,5.888.751l3.638-2.142,1.059,4.087a4.849,4.849,0,0,0,4.693,3.633h5.4a4.848,4.848,0,0,0,4.693-3.633l1.059-4.087,3.638,2.142a4.846,4.846,0,0,0,5.888-.75l3.819-3.818a4.848,4.848,0,0,0,.75-5.888l-2.142-3.638,4.087-1.058a4.847,4.847,0,0,0,3.634-4.693v-5.4a4.845,4.845,0,0,0-3.633-4.693Zm-1.3,10.028-7,1.812a2.462,2.462,0,0,0-1.605,3.851l3.672,6.238-3.725,3.726-6.235-3.671a2.47,2.47,0,0,0-3.852,1.593l-1.814,7.007h-5.27l-1.815-7.014a2.465,2.465,0,0,0-3.849-1.587l-6.238,3.672-3.726-3.726,3.669-6.233a2.461,2.461,0,0,0-1.592-3.854l-7.007-1.813v-5.27l7-1.812a2.458,2.458,0,0,0,1.6-3.851l-3.672-6.238,3.726-3.726,6.224,3.663a2.47,2.47,0,0,0,3.863-1.586l1.813-7.007h5.27l1.815,7.014a2.459,2.459,0,0,0,3.849,1.587l6.237-3.672,3.725,3.726-3.662,6.224a2.461,2.461,0,0,0,1.585,3.863l7.008,1.814v5.27Z" fill="#2e9a84"/>
      <path id="Path_17099" data-name="Path 17099" d="M126.277,111.871a11.2,11.2,0,1,0,11.2,11.2A11.213,11.213,0,0,0,126.277,111.871Zm0,17.47a6.268,6.268,0,1,1,6.269-6.268A6.276,6.276,0,0,1,126.277,129.341Z" fill="#2e9a84"/>
    </g>
  </g>
</svg>
