<svg xmlns="http://www.w3.org/2000/svg" xmlns:xlink="http://www.w3.org/1999/xlink" width="220" height="220" viewBox="0 0 220 220">
  <defs>
    <clipPath id="clip-path">
      <rect id="Rectangle_6253" data-name="Rectangle 6253" width="220" height="220" transform="translate(230 4949)" fill="#fff" stroke="#707070" stroke-width="1"/>
    </clipPath>
  </defs>
  <g id="Mask_Group_52" data-name="Mask Group 52" transform="translate(-230 -4949)" clip-path="url(#clip-path)">
    <g id="_064-web_development" data-name="064-web development" transform="translate(213.722 4932.723)">
      <path id="Path_17079" data-name="Path 17079" d="M47.683,156.214H204.871v8.867H47.683Z" fill="#f4f5f6"/>
      <path id="Path_17080" data-name="Path 17080" d="M34.529,171A2.466,2.466,0,0,0,37,168.534V63.961a2.47,2.47,0,0,1,2.466-2.466H213.093a2.47,2.47,0,0,1,2.466,2.466V168.534a2.466,2.466,0,1,0,4.933,0V63.961a7.407,7.407,0,0,0-7.4-7.4H39.462a7.407,7.407,0,0,0-7.4,7.4V168.534A2.466,2.466,0,0,0,34.529,171Z" fill="#121b3e"/>
      <path id="Path_17081" data-name="Path 17081" d="M47.683,68.893a2.466,2.466,0,0,0-2.466,2.466v93.722a2.466,2.466,0,0,0,2.466,2.466H204.871a2.466,2.466,0,0,0,2.466-2.466V71.36a2.466,2.466,0,0,0-2.466-2.466Zm154.723,93.722H50.149V73.826H202.4v88.789Z" fill="#121b3e"/>
      <path id="Path_17082" data-name="Path 17082" d="M225.754,174.947H26.8a10.523,10.523,0,1,0,0,21.047H225.755a10.523,10.523,0,1,0,0-21.047Zm0,16.114H26.8a5.591,5.591,0,1,1,0-11.181H225.755a5.591,5.591,0,1,1,0,11.181Z" fill="#121b3e"/>
      <g id="Group_9046" data-name="Group 9046">
        <path id="Path_17083" data-name="Path 17083" d="M180.7,83.691H71.853a2.466,2.466,0,0,0-2.466,2.466v70.056a2.466,2.466,0,0,0,4.933,0V88.624H178.235v67.59a2.466,2.466,0,0,0,4.933,0V86.158a2.466,2.466,0,0,0-2.465-2.466Z" fill="#2e9a84"/>
        <path id="Path_17084" data-name="Path 17084" d="M100.627,120.193H82.541a2.466,2.466,0,1,0,0,4.933h18.086a2.466,2.466,0,0,0,0-4.933Z" fill="#2e9a84"/>
        <path id="Path_17085" data-name="Path 17085" d="M100.627,131.375H82.541a2.466,2.466,0,1,0,0,4.933h18.086a2.466,2.466,0,1,0,0-4.933Z" fill="#2e9a84"/>
        <path id="Path_17086" data-name="Path 17086" d="M100.627,142.555H82.541a2.466,2.466,0,0,0,0,4.933h18.086a2.466,2.466,0,0,0,0-4.933Z" fill="#2e9a84"/>
        <path id="Path_17087" data-name="Path 17087" d="M170.014,120.193H151.928a2.466,2.466,0,0,0,0,4.933h18.086a2.466,2.466,0,1,0,0-4.933Z" fill="#2e9a84"/>
        <path id="Path_17088" data-name="Path 17088" d="M170.014,131.375H151.928a2.466,2.466,0,0,0,0,4.933h18.086a2.466,2.466,0,1,0,0-4.933Z" fill="#2e9a84"/>
        <path id="Path_17089" data-name="Path 17089" d="M170.014,142.555H151.928a2.466,2.466,0,0,0,0,4.933h18.086a2.466,2.466,0,1,0,0-4.933Z" fill="#2e9a84"/>
        <path id="Path_17090" data-name="Path 17090" d="M130.018,131.941l5.1-3.419a1,1,0,0,0-.324-1.8l-17.35-4.153a1,1,0,0,0-1.2,1.2l4.153,17.35a1,1,0,0,0,1.8.324l3.419-5.1,8.5,8.5a1,1,0,0,0,1.411,0l3-3a1,1,0,0,0,0-1.411Z" fill="#2e9a84"/>
        <path id="Path_17091" data-name="Path 17091" d="M170.014,108.52H82.541a2.466,2.466,0,1,0,0,4.933h87.474a2.466,2.466,0,1,0,0-4.933Z" fill="#2e9a84"/>
      </g>
      <path id="Path_17092" data-name="Path 17092" d="M169.027,105.067h-85.5a.987.987,0,0,1-.987-.987v-11.1A.987.987,0,0,1,83.528,92h85.5a.987.987,0,0,1,.987.987v11.1a.988.988,0,0,1-.988.987Z" fill="#f4f5f6"/>
    </g>
  </g>
</svg>
