<svg xmlns="http://www.w3.org/2000/svg" xmlns:xlink="http://www.w3.org/1999/xlink" width="220" height="220" viewBox="0 0 220 220">
  <defs>
    <clipPath id="clip-path">
      <rect id="Rectangle_6255" data-name="Rectangle 6255" width="220" height="220" transform="translate(1230 4949)" fill="#fff" stroke="#707070" stroke-width="1"/>
    </clipPath>
  </defs>
  <g id="Mask_Group_54" data-name="Mask Group 54" transform="translate(-1230 -4949)" clip-path="url(#clip-path)">
    <g id="_030-management" data-name="030-management" transform="translate(1214.431 4932.938)">
      <path id="Path_17100" data-name="Path 17100" d="M118.862,149.415H45.607V157.9h82.834A48.593,48.593,0,0,1,118.862,149.415Z" fill="#f4f5f6"/>
      <path id="Path_17101" data-name="Path 17101" d="M157.5,140.738h-4.335a4.271,4.271,0,0,1-4.134-3.2l-.724-2.793-2.486,1.464a4.269,4.269,0,0,1-5.186-.661l-3.066-3.066a4.269,4.269,0,0,1-.66-5.187l1.464-2.485-2.793-.723a4.272,4.272,0,0,1-3.2-4.135v-4.335a4.271,4.271,0,0,1,3.2-4.134l2.794-.724-1.464-2.486a4.268,4.268,0,0,1,.661-5.186l3.066-3.066a4.272,4.272,0,0,1,5.187-.661l2.485,1.464.723-2.793a4.272,4.272,0,0,1,4.135-3.2H157.5a4.271,4.271,0,0,1,4.134,3.2l.724,2.794,2.486-1.464a4.269,4.269,0,0,1,5.186.661l3.066,3.066a4.269,4.269,0,0,1,.661,5.186L172.3,110.76l2.793.723a4.27,4.27,0,0,1,3.2,4.134v4.335a4.271,4.271,0,0,1-3.2,4.134l-2.793.724,1.464,2.486a4.27,4.27,0,0,1-.661,5.186l-3.066,3.066a4.269,4.269,0,0,1-5.187.66l-2.485-1.464-.723,2.793A4.273,4.273,0,0,1,157.5,140.738Zm-3.989-4.718h3.642l1.381-5.34a2.348,2.348,0,0,1,3.673-1.5l4.73,2.784,2.575-2.575-2.8-4.753a2.345,2.345,0,0,1,1.538-3.656l5.313-1.376v-3.642l-5.34-1.381a2.345,2.345,0,0,1-1.5-3.673l2.784-4.729-2.575-2.575-4.754,2.8a2.32,2.32,0,0,1-2.245.25,2.359,2.359,0,0,1-1.411-1.787l-1.376-5.314h-3.642l-1.381,5.34a2.346,2.346,0,0,1-3.688,1.488L143.73,103.6l-2.575,2.575,2.8,4.754a2.344,2.344,0,0,1-1.534,3.655l-5.317,1.377v3.642l5.34,1.381a2.348,2.348,0,0,1,1.5,3.673l-2.784,4.73,2.575,2.575,4.753-2.8a2.332,2.332,0,0,1,2.246-.242,2.356,2.356,0,0,1,1.41,1.78ZM173.9,116.05h0Zm-18.568,11.1a9.37,9.37,0,1,1,9.37-9.37,9.381,9.381,0,0,1-9.37,9.37Zm0-14.021a4.652,4.652,0,1,0,4.652,4.652,4.657,4.657,0,0,0-4.652-4.652Z" fill="#2e9a84"/>
      <path id="Path_17102" data-name="Path 17102" d="M221.524,188.456l-21.691-21.691a6.981,6.981,0,0,1-.1-9.771c-.042.041-.086.082-.127.125l-4.936,4.937a6.983,6.983,0,0,0,0,9.874l21.691,21.691a6.981,6.981,0,0,0,9.874,0l4.936-4.936.1-.1A6.983,6.983,0,0,1,221.524,188.456Z" fill="#f4f5f6"/>
      <g id="Group_9048" data-name="Group 9048">
        <path id="Path_17103" data-name="Path 17103" d="M208.537,130.891a2.359,2.359,0,0,0-2.359,2.359v14.425a2.359,2.359,0,0,0,4.718,0V133.25A2.359,2.359,0,0,0,208.537,130.891Z" fill="#121b3e"/>
        <path id="Path_17104" data-name="Path 17104" d="M33.026,163.558a2.359,2.359,0,0,0,2.359-2.359V61.177a2.362,2.362,0,0,1,2.359-2.359H203.819a2.362,2.362,0,0,1,2.359,2.359v43.229a2.359,2.359,0,1,0,4.718,0V61.177a7.084,7.084,0,0,0-7.077-7.077H37.744a7.084,7.084,0,0,0-7.077,7.077V161.2A2.359,2.359,0,0,0,33.026,163.558Z" fill="#121b3e"/>
        <path id="Path_17105" data-name="Path 17105" d="M195.956,81.386a2.359,2.359,0,0,0,2.359-2.359V68.254a2.359,2.359,0,0,0-2.359-2.359H180.7a2.359,2.359,0,1,0,0,4.718h12.9v8.414a2.359,2.359,0,0,0,2.359,2.359Z" fill="#121b3e"/>
        <path id="Path_17106" data-name="Path 17106" d="M132.734,68.254a2.359,2.359,0,0,0-2.359-2.359H45.607a2.359,2.359,0,0,0-2.359,2.359V157.9a2.359,2.359,0,0,0,2.359,2.359h70.22a2.359,2.359,0,1,0,0-4.718H47.966V70.613h82.408a2.359,2.359,0,0,0,2.36-2.359Z" fill="#121b3e"/>
        <path id="Path_17107" data-name="Path 17107" d="M171.972,167.333a2.359,2.359,0,0,0,0,4.718h12.5a2.359,2.359,0,0,0,0-4.718Z" fill="#121b3e"/>
        <path id="Path_17108" data-name="Path 17108" d="M196.978,182.745H25.635a5.347,5.347,0,0,1,0-10.695h108a2.359,2.359,0,0,0,0-4.718h-108a10.065,10.065,0,1,0,0,20.131H196.978a2.359,2.359,0,1,0,0-4.718Z" fill="#121b3e"/>
        <path id="Path_17109" data-name="Path 17109" d="M232.838,177.141l-21.691-21.69a9.342,9.342,0,0,0-13.21,0L193,160.389a9.341,9.341,0,0,0,0,13.21l21.691,21.691a9.341,9.341,0,0,0,13.21,0l4.935-4.936A9.351,9.351,0,0,0,232.838,177.141Zm-3.336,9.874-4.935,4.936a4.623,4.623,0,0,1-6.538,0l-21.691-21.691a4.622,4.622,0,0,1,0-6.537l4.935-4.937a4.628,4.628,0,0,1,6.538,0l21.691,21.69a4.63,4.63,0,0,1,0,6.539Z" fill="#121b3e"/>
        <path id="Path_17110" data-name="Path 17110" d="M155.336,67.135a50.65,50.65,0,1,0,0,101.3,50.2,50.2,0,0,0,28.6-8.842l1.742,1.742A2.359,2.359,0,0,0,189.013,158l-3.156-3.156a2.359,2.359,0,0,0-3.079-.223,45.926,45.926,0,1,1,9.393-9.393,2.359,2.359,0,0,0,.222,3.079l3.155,3.156a2.359,2.359,0,1,0,3.337-3.337l-1.742-1.742a50.656,50.656,0,0,0-41.806-79.25Z" fill="#121b3e"/>
        <path id="Path_17111" data-name="Path 17111" d="M155.336,79.572a38.214,38.214,0,1,0,38.214,38.213,38.257,38.257,0,0,0-38.214-38.213Zm0,71.708a33.5,33.5,0,1,1,33.5-33.5A33.534,33.534,0,0,1,155.336,151.281Z" fill="#121b3e"/>
        <path id="Path_17112" data-name="Path 17112" d="M73.13,81.931a2.359,2.359,0,0,0-2.359-2.359H58.032a2.359,2.359,0,0,0-2.359,2.359V94.67a2.359,2.359,0,0,0,2.359,2.359H70.77A2.359,2.359,0,0,0,73.13,94.67Zm-4.718,10.38H60.391V84.29h8.021Z" fill="#121b3e"/>
        <path id="Path_17113" data-name="Path 17113" d="M96.484,81.931a2.359,2.359,0,0,0-2.359-2.359H81.386a2.359,2.359,0,0,0-2.359,2.359V94.67a2.359,2.359,0,0,0,2.359,2.359H94.125a2.359,2.359,0,0,0,2.359-2.359Zm-4.718,10.38H83.745V84.29h8.021Z" fill="#121b3e"/>
        <path id="Path_17114" data-name="Path 17114" d="M73.13,104.405a2.359,2.359,0,0,0-2.359-2.359H58.032a2.359,2.359,0,0,0-2.359,2.359v12.739a2.359,2.359,0,0,0,2.359,2.359H70.77a2.359,2.359,0,0,0,2.359-2.359Zm-4.718,10.38H60.391v-8.021h8.021Z" fill="#121b3e"/>
        <path id="Path_17115" data-name="Path 17115" d="M96.484,104.405a2.359,2.359,0,0,0-2.359-2.359H81.386a2.359,2.359,0,0,0-2.359,2.359v12.739a2.359,2.359,0,0,0,2.359,2.359H94.125a2.359,2.359,0,0,0,2.359-2.359Zm-4.718,10.38H83.745v-8.021h8.021Z" fill="#121b3e"/>
        <path id="Path_17116" data-name="Path 17116" d="M70.77,124.521H58.032a2.359,2.359,0,0,0-2.359,2.359v12.739a2.359,2.359,0,0,0,2.359,2.359H70.77a2.359,2.359,0,0,0,2.359-2.359V126.88A2.359,2.359,0,0,0,70.77,124.521ZM68.411,137.26H60.391v-8.021h8.021Z" fill="#121b3e"/>
        <path id="Path_17117" data-name="Path 17117" d="M94.125,124.521H81.386a2.359,2.359,0,0,0-2.359,2.359v12.739a2.359,2.359,0,0,0,2.359,2.359H94.125a2.359,2.359,0,0,0,2.359-2.359V126.88A2.359,2.359,0,0,0,94.125,124.521ZM91.766,137.26H83.745v-8.021h8.021Z" fill="#121b3e"/>
      </g>
    </g>
  </g>
</svg>
