<svg xmlns="http://www.w3.org/2000/svg" xmlns:xlink="http://www.w3.org/1999/xlink" width="186.853" height="65.169" viewBox="0 0 186.853 65.169">
  <defs>
    <clipPath id="clip-path">
      <path id="Path_16335" data-name="Path 16335" d="M0,42.492H180.738V-22.677H0Z" transform="translate(0 22.677)" fill="#121b3e"/>
    </clipPath>
  </defs>
  <g id="Group_8939" data-name="Group 8939" transform="translate(17092 22266)">
    <g id="Group_8320" data-name="Group 8320" transform="translate(-17009.691 -22257.842)">
      <path id="Path_16331" data-name="Path 16331" d="M4.851,13.823H8.188V-4.1h7.4V-7.377l-18.174.014v3.273L4.851-4.1Z" transform="translate(2.589 7.377)" fill="#121b3e"/>
    </g>
    <g id="Group_8321" data-name="Group 8321" transform="translate(-16984.758 -22257.828)">
      <path id="Path_16332" data-name="Path 16332" d="M2.175,7.92H13.07v9.038h3.336V-4.227H13.07V4.779H2.175V-4.227H-1.161V16.959H2.175Z" transform="translate(1.161 4.227)" fill="#121b3e"/>
    </g>
    <path id="Path_16333" data-name="Path 16333" d="M47.464-19.833H44.128V1.353h3.336Z" transform="translate(-17003.197 -22237.992)" fill="#121b3e"/>
    <g id="Group_8323" data-name="Group 8323" transform="translate(-17085.885 -22266)" clip-path="url(#clip-path)">
      <g id="Group_8322" data-name="Group 8322" transform="translate(138.127 8.158)">
        <path id="Path_16334" data-name="Path 16334" d="M9.279,6.628v5.138L-.406-2.5a2.384,2.384,0,0,0-.848-.8,2.379,2.379,0,0,0-1.1-.23h-2.6v21.2H-1.63l.011-11.446v0l0-3.144c0-.023,0-.046,0-.069V1.366L8.911,16.907a2.108,2.108,0,0,0,.552.555,1.094,1.094,0,0,0,.6.2H12.6v-21.2H9.279Z" transform="translate(4.952 3.537)" fill="#121b3e"/>
      </g>
    </g>
    <path id="Path_16336" data-name="Path 16336" d="M57.03,1.353h3.336V-19.833H57.03Z" transform="translate(-16979.023 -22237.992)" fill="#121b3e"/>
    <g id="Group_8327" data-name="Group 8327" transform="translate(-17085.885 -22266)" clip-path="url(#clip-path)">
      <g id="Group_8324" data-name="Group 8324" transform="translate(168.387 8.165)">
        <path id="Path_16337" data-name="Path 16337" d="M2.638,7.044a.854.854,0,0,0-.667-.322H1.888A.838.838,0,0,0,2.543,6.4L10.662-3.759H7.144a.831.831,0,0,0-.655.316l-7.725,9.67a.8.8,0,0,0,0,.989l7.909,9.9a.866.866,0,0,0,.675.325h3.6Z" transform="translate(1.408 3.759)" fill="#121b3e"/>
      </g>
      <g id="Group_8325" data-name="Group 8325" transform="translate(74.573 35.712)">
        <path id="Path_16338" data-name="Path 16338" d="M10.527.922A10.7,10.7,0,0,0,5.093-.492,10.668,10.668,0,0,0-.327.922,10.4,10.4,0,0,0-4.2,4.787a10.625,10.625,0,0,0-1.417,5.426A10.611,10.611,0,0,0-4.2,15.624,10.389,10.389,0,0,0-.327,19.487,10.642,10.642,0,0,0,5.093,20.9a10.672,10.672,0,0,0,5.434-1.417,10.425,10.425,0,0,0,3.88-3.862,10.561,10.561,0,0,0,1.425-5.411,10.576,10.576,0,0,0-1.425-5.426A10.432,10.432,0,0,0,10.527.922m1.032,13.061a7.271,7.271,0,0,1-2.687,2.7,7.39,7.39,0,0,1-3.765.983,7.39,7.39,0,0,1-3.765-.983,7.271,7.271,0,0,1-2.687-2.7,7.425,7.425,0,0,1-.989-3.77,7.419,7.419,0,0,1,.989-3.779,7.351,7.351,0,0,1,6.452-3.69,7.351,7.351,0,0,1,6.452,3.69,7.419,7.419,0,0,1,.989,3.779,7.425,7.425,0,0,1-.989,3.77" transform="translate(5.618 0.492)" fill="#121b3e"/>
      </g>
      <g id="Group_8326" data-name="Group 8326" transform="translate(101.417 35.976)">
        <path id="Path_16339" data-name="Path 16339" d="M9.133,3.588v9.561L-.4-.895a2.379,2.379,0,0,0-.836-.8,2.375,2.375,0,0,0-1.081-.224H-4.874V18.954h3.267l.014-14.366c0-.011,0-.023,0-.037V2.91L8.771,18.21a2.086,2.086,0,0,0,.543.546,1.07,1.07,0,0,0,.589.2h2.5V-1.915H9.133Z" transform="translate(4.874 1.915)" fill="#121b3e"/>
      </g>
    </g>
    <path id="Path_17050" data-name="Path 17050" d="M9.785,0H64.828V55.043a9.785,9.785,0,0,1-9.785,9.785H0V9.785A9.785,9.785,0,0,1,9.785,0Z" transform="translate(-17092 -22266)" fill="#121b3e"/>
    <g id="Group_8328" data-name="Group 8328" transform="translate(-16959.07 -22230.027)">
      <path id="Path_16341" data-name="Path 16341" d="M9.614,2.112V-1.127H-5.131V19.745H9.614V16.507H-1.846V10.658H7.769V7.494H-1.846V2.112Z" transform="translate(5.131 1.127)" fill="#121b3e"/>
    </g>
    <g id="Group_8329" data-name="Group 8329" transform="translate(-17083.836 -22257.832)">
      <path id="Path_16343" data-name="Path 16343" d="M31.766,0H24.079A3.911,3.911,0,0,0,21.03,1.474L-16.953,48.949h7.676a3.932,3.932,0,0,0,3.069-1.483Z" transform="translate(16.953)" fill="#fff"/>
    </g>
  </g>
</svg>
